<?xml version="1.0" encoding="UTF-8"?>
<svg version="1.1" xmlns="http://www.w3.org/2000/svg" width="64" height="64">
<path d="M0 0 C21.12 0 42.24 0 64 0 C64 21.12 64 42.24 64 64 C42.88 64 21.76 64 0 64 C0 42.88 0 21.76 0 0 Z " fill="#070606" transform="translate(0,0)"/>
<path d="M0 0 C1.91723633 0.16674805 1.91723633 0.16674805 4 1 C5.2644043 2.88598633 5.2644043 2.88598633 6.32421875 5.33203125 C6.90719727 6.65364258 6.90719727 6.65364258 7.50195312 8.00195312 C7.89318359 8.92943359 8.28441406 9.85691406 8.6875 10.8125 C9.09033203 11.72837891 9.49316406 12.64425781 9.90820312 13.58789062 C11.54906281 17.36159305 13.10303874 20.97319194 14 25 C13.40044019 21.31698976 12.74134815 17.65690221 12 14 C14.08205657 12.70623653 16.16557304 11.41493446 18.25 10.125 C18.83652344 9.76019531 19.42304687 9.39539062 20.02734375 9.01953125 C28.14985795 4 28.14985795 4 33 4 C32.875 5.75 32.875 5.75 32 8 C28.74364412 10.62096936 25.61135326 12.19440134 21.6875 13.5 C17.96352001 14.51989958 17.96352001 14.51989958 17.18359375 16.8203125 C16.96596448 19.40408132 17.45155237 20.96048096 18.375 23.375 C19.65514162 26.91146429 20.51962722 30.25309231 21 34 C17.6100192 37.06273018 14.72684657 37.60550995 10.25 38.1875 C9.07953125 38.34605469 7.9090625 38.50460938 6.703125 38.66796875 C5.81109375 38.77753906 4.9190625 38.88710938 4 39 C-3.15556941 27.14805449 -3.15556941 27.14805449 -2.796875 22.1953125 C-2.22590035 20.57063009 -1.59916836 18.96444839 -0.91796875 17.3828125 C0.84294672 12.81192553 0.64620749 7.48877209 -0.578125 2.7734375 C-0.71734375 2.18820313 -0.8565625 1.60296875 -1 1 C-0.67 0.67 -0.34 0.34 0 0 Z " fill="#0A0909" transform="translate(23,15)"/>
<path d="M0 0 C3.08960814 1.34154038 3.80975739 3.39129655 5.328125 6.33984375 C5.84890625 7.32855469 6.3696875 8.31726563 6.90625 9.3359375 C8.078125 11.90234375 8.078125 11.90234375 8.078125 13.90234375 C9.9335954 12.98831892 11.78743379 12.07098086 13.640625 11.15234375 C14.73632812 10.60964844 15.83203125 10.06695312 16.9609375 9.5078125 C19.40376243 8.24966582 21.69899073 6.93204545 24.015625 5.46484375 C27.078125 3.90234375 27.078125 3.90234375 30.015625 4.15234375 C30.69625 4.39984375 31.376875 4.64734375 32.078125 4.90234375 C32.573125 7.37734375 32.573125 7.37734375 33.078125 9.90234375 C27.328125 13.90234375 27.328125 13.90234375 25.078125 13.90234375 C25.078125 15.88234375 25.078125 17.86234375 25.078125 19.90234375 C25.738125 19.90234375 26.398125 19.90234375 27.078125 19.90234375 C27.2225 20.95421875 27.366875 22.00609375 27.515625 23.08984375 C27.95361991 26.05847589 28.474558 28.96566063 29.078125 31.90234375 C27.01860142 33.19896913 24.95575443 34.48970102 22.890625 35.77734375 C22.31248047 36.14214844 21.73433594 36.50695313 21.13867188 36.8828125 C14.34718094 41.10351308 10.83176018 42.2165192 3.078125 40.90234375 C3.078125 40.57234375 3.078125 40.24234375 3.078125 39.90234375 C3.90957031 39.79277344 4.74101562 39.68320312 5.59765625 39.5703125 C6.68433594 39.41175781 7.77101563 39.25320312 8.890625 39.08984375 C9.96957031 38.93902344 11.04851563 38.78820313 12.16015625 38.6328125 C15.14533846 37.88551789 16.31738216 37.38480451 18.078125 34.90234375 C17.92615461 32.31884704 17.16481838 30.14465176 16.296875 27.71875 C16.0184375 26.93371094 15.74 26.14867188 15.453125 25.33984375 C15.17210938 24.59605469 14.89109375 23.85226563 14.6015625 23.0859375 C14.00337347 20.59050714 14.14073604 19.27638318 15.078125 16.90234375 C18.74163266 14.20858812 22.91297489 12.67638917 27.078125 10.90234375 C30.32662477 9.18007879 30.32662477 9.18007879 31.078125 5.90234375 C23.88940071 8.50252062 17.51882901 11.79125608 11.078125 15.90234375 C11.62123405 18.63645683 12.17788282 21.36485728 12.765625 24.08984375 C12.86875 25.01796875 12.971875 25.94609375 13.078125 26.90234375 C12.418125 27.56234375 11.758125 28.22234375 11.078125 28.90234375 C10.93334717 28.08552124 10.93334717 28.08552124 10.78564453 27.25219727 C9.61569387 21.31161716 7.63613064 16.24851767 4.953125 10.83984375 C4.58058594 10.06962891 4.20804688 9.29941406 3.82421875 8.50585938 C2.91730761 6.63390176 1.99892883 4.76750686 1.078125 2.90234375 C0.088125 2.90234375 -0.901875 2.90234375 -1.921875 2.90234375 C-1.76203125 3.46695312 -1.6021875 4.0315625 -1.4375 4.61328125 C0.31983125 12.41476697 -1.2804289 19.51258384 -3.921875 26.90234375 C-4.581875 26.90234375 -5.241875 26.90234375 -5.921875 26.90234375 C-5.52444666 23.52420282 -5.16734063 20.4943491 -3.859375 17.33984375 C-2.72096931 14.37998897 -2.71208479 12.04919696 -2.921875 8.90234375 C-3.251875 8.24234375 -3.581875 7.58234375 -3.921875 6.90234375 C-3.961867 4.90274363 -3.96534299 2.90187133 -3.921875 0.90234375 C-1.921875 -0.09765625 -1.921875 -0.09765625 0 0 Z " fill="#CACACA" transform="translate(24.921875,13.09765625)"/>
<path d="M0 0 C1.36621094 1.6965332 1.36621094 1.6965332 2.734375 4.05078125 C3.47107422 5.31631836 3.47107422 5.31631836 4.22265625 6.60742188 C4.72667969 7.50009766 5.23070312 8.39277344 5.75 9.3125 C6.26949219 10.19357422 6.78898437 11.07464844 7.32421875 11.98242188 C10.14824525 16.90761398 10.14824525 16.90761398 11 19 C10 22 10 22 8.125 23.1875 C6 24 6 24 3 24 C1.74145508 22.51879883 1.74145508 22.51879883 0.51953125 20.45703125 C0.07802734 19.71259766 -0.36347656 18.96816406 -0.81835938 18.20117188 C-1.27017578 17.41291016 -1.72199219 16.62464844 -2.1875 15.8125 C-2.65091797 15.04357422 -3.11433594 14.27464844 -3.59179688 13.48242188 C-4.02943359 12.73154297 -4.46707031 11.98066406 -4.91796875 11.20703125 C-5.31781982 10.5210083 -5.7176709 9.83498535 -6.12963867 9.12817383 C-7.15352289 6.62461177 -7.1558864 4.67990067 -7 2 C-4.35261084 0.5393715 -3.10551666 0 0 0 Z " fill="#F20404" transform="translate(18,36)"/>
<path d="M0 0 C3.08960814 1.34154038 3.80975739 3.39129655 5.328125 6.33984375 C5.84890625 7.32855469 6.3696875 8.31726563 6.90625 9.3359375 C8.078125 11.90234375 8.078125 11.90234375 8.078125 13.90234375 C9.9335954 12.98831892 11.78743379 12.07098086 13.640625 11.15234375 C14.73632812 10.60964844 15.83203125 10.06695312 16.9609375 9.5078125 C19.40376243 8.24966582 21.69899073 6.93204545 24.015625 5.46484375 C27.078125 3.90234375 27.078125 3.90234375 30.015625 4.15234375 C30.69625 4.39984375 31.376875 4.64734375 32.078125 4.90234375 C32.573125 7.37734375 32.573125 7.37734375 33.078125 9.90234375 C27.328125 13.90234375 27.328125 13.90234375 25.078125 13.90234375 C25.078125 14.56234375 25.078125 15.22234375 25.078125 15.90234375 C24.15 16.04671875 23.221875 16.19109375 22.265625 16.33984375 C19.07087389 16.82334486 19.07087389 16.82334486 16.078125 17.90234375 C16.408125 19.22234375 16.738125 20.54234375 17.078125 21.90234375 C16.418125 22.23234375 15.758125 22.56234375 15.078125 22.90234375 C14.583125 20.42734375 14.583125 20.42734375 14.078125 17.90234375 C17.22889878 15.67374766 20.19649812 13.75815171 23.765625 12.27734375 C27.13577067 11.00353834 27.13577067 11.00353834 30.078125 8.90234375 C30.408125 7.91234375 30.738125 6.92234375 31.078125 5.90234375 C23.88940071 8.50252062 17.51882901 11.79125608 11.078125 15.90234375 C11.62123405 18.63645683 12.17788282 21.36485728 12.765625 24.08984375 C12.86875 25.01796875 12.971875 25.94609375 13.078125 26.90234375 C12.418125 27.56234375 11.758125 28.22234375 11.078125 28.90234375 C10.93334717 28.08552124 10.93334717 28.08552124 10.78564453 27.25219727 C9.61569387 21.31161716 7.63613064 16.24851767 4.953125 10.83984375 C4.58058594 10.06962891 4.20804688 9.29941406 3.82421875 8.50585938 C2.91730761 6.63390176 1.99892883 4.76750686 1.078125 2.90234375 C0.088125 2.90234375 -0.901875 2.90234375 -1.921875 2.90234375 C-1.76203125 3.46695312 -1.6021875 4.0315625 -1.4375 4.61328125 C0.31983125 12.41476697 -1.2804289 19.51258384 -3.921875 26.90234375 C-4.581875 26.90234375 -5.241875 26.90234375 -5.921875 26.90234375 C-5.52444666 23.52420282 -5.16734063 20.4943491 -3.859375 17.33984375 C-2.72096931 14.37998897 -2.71208479 12.04919696 -2.921875 8.90234375 C-3.251875 8.24234375 -3.581875 7.58234375 -3.921875 6.90234375 C-3.961867 4.90274363 -3.96534299 2.90187133 -3.921875 0.90234375 C-1.921875 -0.09765625 -1.921875 -0.09765625 0 0 Z " fill="#C9C9C9" transform="translate(24.921875,13.09765625)"/>
<path d="M0 0 C-0.125 1.75 -0.125 1.75 -1 4 C-4.20944061 6.5832083 -7.32693256 8.18227864 -11.1875 9.5 C-14.5967145 10.67536729 -16.06268663 11.87877291 -18 15 C-18.66 15 -19.32 15 -20 15 C-20.33 13.35 -20.66 11.7 -21 10 C-18.91794343 8.70623653 -16.83442696 7.41493446 -14.75 6.125 C-14.16347656 5.76019531 -13.57695313 5.39539063 -12.97265625 5.01953125 C-4.85014205 0 -4.85014205 0 0 0 Z " fill="#121212" transform="translate(56,19)"/>
<path d="M0 0 C0 0.99 0 1.98 0 3 C-2.3125 4.75 -2.3125 4.75 -5 6 C-5.99 5.67 -6.98 5.34 -8 5 C-8 4.01 -8 3.02 -8 2 C-3.71900826 -1.23966942 -3.71900826 -1.23966942 0 0 Z " fill="#171717" transform="translate(51,35)"/>
<path d="M0 0 C0 0.99 0 1.98 0 3 C-2.3125 4.75 -2.3125 4.75 -5 6 C-5.99 5.67 -6.98 5.34 -8 5 C-8 4.01 -8 3.02 -8 2 C-3.71900826 -1.23966942 -3.71900826 -1.23966942 0 0 Z " fill="#171717" transform="translate(49,29)"/>
<path d="M0 0 C-0.3125 1.875 -0.3125 1.875 -1 4 C-4 6 -4 6 -8 6 C-7.6875 4.125 -7.6875 4.125 -7 2 C-4 0 -4 0 0 0 Z " fill="#131313" transform="translate(52,41)"/>
<path d="M0 0 C0.66 1.32 1.32 2.64 2 4 C-0.91403262 5.94268841 -3.85808576 7.46395304 -7 9 C-7.33 8.01 -7.66 7.02 -8 6 C-2.25 3 -2.25 3 0 3 C0 2.01 0 1.02 0 0 Z " fill="#E8E8E8" transform="translate(49,29)"/>
<path d="M0 0 C0.33 1.32 0.66 2.64 1 4 C-1.31 5.32 -3.62 6.64 -6 8 C-6.66 7.34 -7.32 6.68 -8 6 C-7.05125 5.566875 -6.1025 5.13375 -5.125 4.6875 C-1.79958063 3.20697799 -1.79958063 3.20697799 0 0 Z " fill="#BFBFBF" transform="translate(53,41)"/>
</svg>
