<?xml version="1.0" encoding="UTF-8"?>
<svg version="1.1" xmlns="http://www.w3.org/2000/svg" width="240" height="240">
<path d="M0 0 C79.2 0 158.4 0 240 0 C240 79.2 240 158.4 240 240 C160.8 240 81.6 240 0 240 C0 160.8 0 81.6 0 0 Z " fill="#FEFDFE" transform="translate(0,0)"/>
<path d="M0 0 C1.21171875 -0.02578125 2.4234375 -0.0515625 3.671875 -0.078125 C9.179507 0.42694169 12.65860539 2.36996566 16.484375 6.26953125 C20.05900354 10.70286293 20.71544538 15.41869668 21.5 20.9375 C21.79169151 22.7963937 22.08838143 24.65451156 22.390625 26.51171875 C22.50954102 27.32600342 22.62845703 28.14028809 22.75097656 28.97924805 C23.27952957 31.38437112 23.94273555 33.16349678 25.25 35.25 C27.47951337 36.5165718 29.60688887 37.58994334 31.9375 38.625 C37.466107 41.21410614 41.87218932 43.9764229 46.25 48.25 C44.90422692 43.96866696 43.22986553 42.06390203 39.625 39.4375 C38.80773437 38.83292969 37.99046875 38.22835937 37.1484375 37.60546875 C36.52195313 37.15816406 35.89546875 36.71085937 35.25 36.25 C37.92468912 32.40220162 39.59135871 31.28525362 44.25 30.25 C50.28623727 29.61284162 55.99796711 30.00188742 61.25 33.25 C64.86518239 36.32560293 66.86538363 39.38409084 67.828125 44.0546875 C68.23325357 51.14443746 66.39098088 55.7817764 62.71875 61.7578125 C60.87514866 64.88605094 60.03312455 67.72593954 59.25 71.25 C58.404375 71.105625 57.55875 70.96125 56.6875 70.8125 C51.61432045 71.4581774 49.48121157 74.45846788 46.25 78.25 C44.30658808 81.01113349 42.61667374 83.88501813 40.9375 86.8125 C34.01359162 98.43697811 26.85963536 108.75198114 17.4375 118.5 C8.20650824 128.03875806 8.20650824 128.03875806 4.8125 140.5625 C5.10246549 145.49191326 5.96725009 150.37418801 6.8125 155.234375 C7.25 158.25 7.25 158.25 7.25 163.25 C-0.67 163.25 -8.59 163.25 -16.75 163.25 C-16.75 156.77227726 -16.61941273 151.16964116 -15.7734375 144.890625 C-15.744924 141.6781042 -16.60781017 139.23190017 -17.75 136.25 C-16.05230469 136.28480469 -16.05230469 136.28480469 -14.3203125 136.3203125 C-12.83854825 136.33906901 -11.35677688 136.35726934 -9.875 136.375 C-8.75544922 136.40013672 -8.75544922 136.40013672 -7.61328125 136.42578125 C-5.65805539 136.4433959 -3.70257979 136.35320189 -1.75 136.25 C-1.09 135.59 -0.43 134.93 0.25 134.25 C-1.41675781 134.33701172 -1.41675781 134.33701172 -3.1171875 134.42578125 C-12.96499498 134.78682322 -20.77951821 134.59271301 -28.49609375 127.6875 C-29.9375 126.125 -29.9375 126.125 -31.75 123.25 C-31.255 121.765 -31.255 121.765 -30.75 120.25 C-27.9765625 119.14453125 -27.9765625 119.14453125 -24.375 118.0625 C-17.26156039 115.75519085 -11.28117961 112.38379389 -5.75 107.25 C-5.255 105.765 -5.255 105.765 -4.75 104.25 C-5.26046875 104.69730469 -5.7709375 105.14460938 -6.296875 105.60546875 C-21.26979729 118.05635626 -41.5844032 121.52048579 -60.4296875 123.6875 C-63.37828087 124.18702641 -65.17911614 124.84090258 -67.75 126.25 C-73.07114938 126.79297443 -73.07114938 126.79297443 -75.3125 125.00024414 C-76.91898323 123.04425259 -77.75638628 121.28510547 -78.6875 118.93359375 C-79.02523437 118.08603516 -79.36296875 117.23847656 -79.7109375 116.36523438 C-80.05382812 115.48158203 -80.39671875 114.59792969 -80.75 113.6875 C-81.26433594 112.40262695 -81.26433594 112.40262695 -81.7890625 111.09179688 C-90.59198514 88.76530033 -87.15608466 67.55787861 -84.75 44.25 C-86.07 44.25 -87.39 44.25 -88.75 44.25 C-88.688125 45.425625 -88.62625 46.60125 -88.5625 47.8125 C-88.53855827 52.28960301 -89.7620944 55.2741888 -91.75 59.25 C-92.74 58.92 -93.73 58.59 -94.75 58.25 C-99.41800529 46.58959172 -98.13547201 35.97824231 -94.75 24.25 C-93.43 24.25 -92.11 24.25 -90.75 24.25 C-88.47858546 29.64460953 -88.54586639 34.51157749 -88.75 40.25 C-86.77 40.25 -84.79 40.25 -82.75 40.25 C-82.481875 39.321875 -82.21375 38.39375 -81.9375 37.4375 C-80.78389246 34.34097449 -80.31303926 33.17935185 -77.75 31.25 C-74.93138888 30.80853079 -72.19338387 30.74817367 -69.34375 30.65625 C-66.34531214 30.18661515 -65.73492366 29.41797138 -63.75 27.25 C-60.5625 27.0625 -60.5625 27.0625 -57.75 27.25 C-54.32142857 35.67857143 -54.32142857 35.67857143 -54.75 40.25 C-52.44 40.25 -50.13 40.25 -47.75 40.25 C-47.811875 39.280625 -47.87375 38.31125 -47.9375 37.3125 C-47.95652033 32.66202914 -46.51621699 28.51454466 -44.75 24.25 C-43.75 23.25 -43.75 23.25 -41.90234375 23.15234375 C-39.8515625 23.18489583 -37.80078125 23.21744792 -35.75 23.25 C-35.9665625 23.78625 -36.183125 24.3225 -36.40625 24.875 C-40.51489167 36.44006543 -39.8356624 48.7712342 -35.75 60.25 C-38.72 60.25 -41.69 60.25 -44.75 60.25 C-48.19419134 49.87642369 -48.19419134 49.87642369 -47.75 44.25 C-51.15080577 44.35407917 -51.15080577 44.35407917 -54.75 45.25 C-55.20375 46.013125 -55.6575 46.77625 -56.125 47.5625 C-58.57314177 51.61134986 -62.37343406 52.76346242 -66.75 54.25 C-67.41 54.25 -68.07 54.25 -68.75 54.25 C-68.35683963 67.14566003 -65.37447059 73.47662463 -57.5546875 83.5390625 C-55.66315344 86.38045782 -54.68025498 88.97972218 -53.75 92.25 C-53.32589844 91.85167969 -52.90179688 91.45335937 -52.46484375 91.04296875 C-46.56347189 85.712279 -41.14463271 82.69462476 -33.0390625 82.9453125 C-29.31121001 83.4415113 -26.18890724 84.74938593 -22.75 86.25 C-25.27788007 83.45127563 -26.95411134 81.79226981 -30.75 81.25 C-30.19960543 75.47085704 -28.36732947 71.88114123 -24.26953125 67.76171875 C-17.75277405 62.65476774 -9.55739154 63.39594066 -1.75 64.25 C4.5354579 65.87637419 9.22206979 70.28584817 13.25 75.25 C13.95702184 76.56238041 14.6362831 77.89148103 15.25 79.25 C13.6819004 73.26271061 11.11862147 69.08379997 5.921875 65.76171875 C3.72186686 64.53372678 1.51014113 63.36283637 -0.75 62.25 C-0.09 61.569375 0.57 60.88875 1.25 60.1875 C3.68885872 56.60542625 3.58292585 54.49480464 3.25 50.25 C2.59773438 50.52714844 1.94546875 50.80429688 1.2734375 51.08984375 C-3.39303689 53.02388402 -7.68022603 54.71633958 -12.75 55.25 C-15.05440013 50.95543612 -16.53184562 46.93520915 -17.75 42.25 C-18.74 42.25 -19.73 42.25 -20.75 42.25 C-20.75 38.95 -20.75 35.65 -20.75 32.25 C-21.74 32.25 -22.73 32.25 -23.75 32.25 C-24.05755117 22.9551202 -24.06795963 14.70195239 -17.75 7.25 C-11.76879718 2.69746238 -7.57886539 0.095935 0 0 Z " fill="#F60E34" transform="translate(127.75,38.75)"/>
<path d="M0 0 C-0.0707373 0.55655273 -0.14147461 1.11310547 -0.21435547 1.68652344 C-1.07774693 9.21578255 -1.14891263 16.67766564 -1.125 24.25 C-1.12886719 25.49007812 -1.13273437 26.73015625 -1.13671875 28.0078125 C-1.13542969 29.20664063 -1.13414062 30.40546875 -1.1328125 31.640625 C-1.13112061 33.25759277 -1.13112061 33.25759277 -1.12939453 34.90722656 C-0.99928799 38.01701839 -0.56429527 40.94213703 0 44 C1.07040009 53.67947511 -1.32927232 62.47750538 -3.69921875 71.76953125 C-5.14866638 77.46030163 -6.22354038 83.18508999 -7.2265625 88.96875 C-9.1163944 96.37536391 -13.45420924 98.98389222 -19.625 102.875 C-21.25802134 103.9351763 -22.88955016 104.99765535 -24.51953125 106.0625 C-25.2976416 106.56910156 -26.07575195 107.07570313 -26.87744141 107.59765625 C-35.941954 113.58644856 -41.93465717 118.2713001 -45 129 C-54.24 129 -63.48 129 -73 129 C-73.495 126.339375 -73.99 123.67875 -74.5 120.9375 C-74.65662109 120.1137085 -74.81324219 119.28991699 -74.97460938 118.44116211 C-76.55588382 109.70754911 -76.39318373 102.86521603 -72 95 C-69.21015171 91.46247237 -66.10477086 88.26051179 -63 85 C-52.4105297 73.05339542 -43.85327098 59.45358456 -35.81640625 45.69921875 C-33.80888608 42.7160006 -31.71332469 40.35903707 -29 38 C-26.1875 38.1875 -26.1875 38.1875 -24 39 C-24.98439795 51.00965499 -28.52558648 60.61601586 -34.0625 71.203125 C-35.90140682 74.73193631 -37.47653308 78.32463604 -39 82 C-22.63551638 69.30917596 -17.00891446 50.36017253 -13.78515625 30.73828125 C-13.57189697 29.44591553 -13.3586377 28.1535498 -13.13891602 26.82202148 C-12.71875035 24.22637062 -12.31383789 21.62819649 -11.92553711 19.02758789 C-10.14086769 7.79907403 -10.14086769 7.79907403 -6 3 C-5.484375 2.38125 -4.96875 1.7625 -4.4375 1.125 C-3 0 -3 0 0 0 Z " fill="#E40C5C" transform="translate(210,73)"/>
<path d="M0 0 C0.66 0.33 1.32 0.66 2 1 C1.67 1.639375 1.34 2.27875 1 2.9375 C-1.37042247 10.19691882 0.28178944 17.6202893 1.5625 24.984375 C2 28 2 28 2 33 C-5.92 33 -13.84 33 -22 33 C-22 26.52227726 -21.86941273 20.91964116 -21.0234375 14.640625 C-20.994924 11.4281042 -21.85781017 8.98190017 -23 6 C-21.91460937 6.04640625 -20.82921875 6.0928125 -19.7109375 6.140625 C-18.26565269 6.17816487 -16.82033789 6.21456264 -15.375 6.25 C-14.30572266 6.30027344 -14.30572266 6.30027344 -13.21484375 6.3515625 C-8.00894998 6.44708349 -5.13450845 5.43482241 -1 2 C-0.67 1.34 -0.34 0.68 0 0 Z " fill="#E60B57" transform="translate(133,169)"/>
<path d="M0 0 C2.05078125 0.03255208 4.1015625 0.06510417 6.15234375 0.09765625 C5.93578125 0.69449219 5.71921875 1.29132812 5.49609375 1.90625 C1.66590465 13.84012624 1.68568041 26.37266498 6.15234375 38.09765625 C3.18234375 38.09765625 0.21234375 38.09765625 -2.84765625 38.09765625 C-5.26630349 31.69911858 -6.32276452 26.4161416 -6.22265625 19.59765625 C-6.23425781 18.80746094 -6.24585937 18.01726562 -6.2578125 17.203125 C-6.23550396 12.65961962 -6.00959014 0.31763161 0 0 Z " fill="#FB0F28" transform="translate(25.84765625,60.90234375)"/>
<path d="M0 0 C0.99 0.33 1.98 0.66 3 1 C5.22169645 6.59510845 5.33487327 11.97278503 5.3125 17.9375 C5.32861328 18.79279297 5.34472656 19.64808594 5.36132812 20.52929688 C5.36577662 26.36126916 4.34602228 30.65800205 2 36 C-1 35 -1 35 -2.125 32.9375 C-4.9564935 23.43177183 -5.13217431 12.45452615 -2 3 C-1.34 2.01 -0.68 1.02 0 0 Z " fill="#FE0E22" transform="translate(94,62)"/>
<path d="M0 0 C1.2684375 0.4640625 1.2684375 0.4640625 2.5625 0.9375 C-0.4375 2.9375 -0.4375 2.9375 -2.453125 3.39453125 C-7.12042871 4.67160845 -9.87235989 9.9706796 -12.1796875 13.91796875 C-13.140187 15.64965769 -14.10065281 17.3813655 -15.06030273 19.11352539 C-21.70004117 30.91049168 -29.71682877 41.48967893 -39.01953125 51.2890625 C-44.37520427 57.15521163 -49.41742717 63.72525524 -49.44921875 71.98046875 C-49.34222656 73.01816406 -49.23523438 74.05585938 -49.125 75.125 C-49.01671875 76.24648437 -48.9084375 77.36796875 -48.796875 78.5234375 C-48.67828125 79.65007812 -48.5596875 80.77671875 -48.4375 81.9375 C-48.24759469 84.04145095 -48.05988253 86.14560173 -47.875 88.25 C-47.73010956 89.81258772 -47.58465764 91.37512417 -47.4375 92.9375 C-48.0975 92.9375 -48.7575 92.9375 -49.4375 92.9375 C-49.94694993 90.12642806 -50.4452016 87.31408411 -50.9375 84.5 C-51.08058594 83.71689453 -51.22367188 82.93378906 -51.37109375 82.12695312 C-53.10440523 72.09850813 -53.33332167 64.60944283 -47.4375 55.9375 C-45.32592486 53.58903635 -43.10702411 51.42363408 -40.81640625 49.25 C-29.76533492 38.50741506 -21.63757086 24.80418849 -13.625 11.75 C-6.07246784 -0.11040851 -6.07246784 -0.11040851 0 0 Z " fill="#FBE3E9" transform="translate(184.4375,109.0625)"/>
<path d="M0 0 C2.97 0 5.94 0 9 0 C9.33 0.66 9.66 1.32 10 2 C9.34938905 3.67299959 8.67966676 5.33859237 8 7 C5.70245687 16.87943547 6.81334567 27.440037 10 37 C9.67 37.66 9.34 38.32 9 39 C5.7 39 2.4 39 -1 39 C-1 38.67 -1 38.34 -1 38 C1.97 38 4.94 38 8 38 C7.525625 37.113125 7.05125 36.22625 6.5625 35.3125 C2.54504181 26.79548864 2.50195271 14.38100802 5.5 5.5 C5.995 4.345 6.49 3.19 7 2 C4.69 1.67 2.38 1.34 0 1 C0 0.67 0 0.34 0 0 Z " fill="#FED0D3" transform="translate(84,61)"/>
<path d="M0 0 C0 4.00386084 -1.3265175 5.08428922 -4 8 C-10.22828581 12.73891311 -17.9216193 18 -26 18 C-26 17.34 -26 16.68 -26 16 C-26.66 15.67 -27.32 15.34 -28 15 C-26.96101563 14.64808594 -25.92203125 14.29617187 -24.8515625 13.93359375 C-15.50947186 10.66487089 -7.13545048 7.13545048 0 0 Z " fill="#FCE3E7" transform="translate(124,141)"/>
<path d="M0 0 C0.66 0.33 1.32 0.66 2 1 C1.835 2.27875 1.67 3.5575 1.5 4.875 C0.53927769 13.94534886 1.08805578 21.44298358 3.44140625 30.3125 C4 33 4 33 3 35 C-0.3 35 -3.6 35 -7 35 C-7 34.67 -7 34.34 -7 34 C-4.03 34 -1.06 34 2 34 C1.525625 33.0925 1.05125 32.185 0.5625 31.25 C-1.95962909 26.00397149 -2.18250973 21.46124166 -2.1875 15.6875 C-2.19974609 14.95337891 -2.21199219 14.21925781 -2.22460938 13.46289062 C-2.23755942 8.59798996 -1.54283687 4.61631426 0 0 Z " fill="#FEDADD" transform="translate(30,65)"/>
<path d="M0 0 C0.66 0.99 1.32 1.98 2 3 C0.99088542 4.69270833 -0.01822917 6.38541667 -1.02734375 8.078125 C-3.11473777 12.20261438 -3.03627362 15.48847039 -2.625 20.0625 C-2.52574219 21.20203125 -2.42648438 22.3415625 -2.32421875 23.515625 C-2.21722656 24.66546875 -2.11023438 25.8153125 -2 27 C-1.85498047 28.63195312 -1.85498047 28.63195312 -1.70703125 30.296875 C-1.47747859 32.86520336 -1.24180034 35.43280061 -1 38 C-1.66 38 -2.32 38 -3 38 C-3.50944993 35.18892806 -4.0077016 32.37658411 -4.5 29.5625 C-4.64308594 28.77939453 -4.78617188 27.99628906 -4.93359375 27.18945312 C-6.23960902 19.63322192 -7.44442781 12.45008039 -3.5625 5.5 C-2.88380859 4.24703125 -2.88380859 4.24703125 -2.19140625 2.96875 C-1 1 -1 1 0 0 Z " fill="#F9D5DE" transform="translate(138,164)"/>
<path d="M0 0 C7.73711104 3.31808912 12.85763675 6.7727996 17.21875 14.02734375 C18 16 18 16 17 19 C16.63648438 18.48050781 16.27296875 17.96101563 15.8984375 17.42578125 C11.51915185 11.35092603 7.37167884 6.38495492 0 4 C0 2.68 0 1.36 0 0 Z " fill="#FDD6DB" transform="translate(126,100)"/>
<path d="M0 0 C-2.57516622 2.63746863 -4.54331396 3.21887499 -8.109375 3.29296875 C-9.65652231 3.27313353 -11.20353396 3.2375101 -12.75 3.1875 C-13.54277344 3.17396484 -14.33554688 3.16042969 -15.15234375 3.14648438 C-17.10185564 3.11125223 -19.05101626 3.05744821 -21 3 C-21 2.34 -21 1.68 -21 1 C-17.72913838 -0.63543081 -14.10046656 -0.42398873 -10.5 -0.625 C-9.71496094 -0.6765625 -8.92992188 -0.728125 -8.12109375 -0.78125 C-2.24757584 -1.12378792 -2.24757584 -1.12378792 0 0 Z " fill="#F9CCD7" transform="translate(130,173)"/>
<path d="M0 0 C0.845625 0.309375 1.69125 0.61875 2.5625 0.9375 C-0.4375 2.9375 -0.4375 2.9375 -2.44921875 3.38671875 C-8.97798794 5.1952776 -13.0565245 15.15937222 -16.1171875 20.55859375 C-16.55289063 21.34363281 -16.98859375 22.12867188 -17.4375 22.9375 C-18.0975 22.2775 -18.7575 21.6175 -19.4375 20.9375 C-6.55813547 -0.11923883 -6.55813547 -0.11923883 0 0 Z " fill="#FBDCE3" transform="translate(184.4375,109.0625)"/>
<path d="M0 0 C5.94 0 11.88 0 18 0 C17.67 0.66 17.34 1.32 17 2 C14.56640625 2.4140625 14.56640625 2.4140625 11.5625 2.625 C10.57378906 2.69976562 9.58507812 2.77453125 8.56640625 2.8515625 C7.04600783 2.93950031 5.5229394 3 4 3 C4 5.31 4 7.62 4 10 C2.20766175 6.67137181 1.23616815 3.70850445 0 0 Z " fill="#E8064D" transform="translate(110,175)"/>
<path d="M0 0 C0.33 0 0.66 0 1 0 C1.66 5.61 2.32 11.22 3 17 C2.34 17 1.68 17 1 17 C-0.46619907 10.97767819 -1.32528788 6.09632423 0 0 Z " fill="#F7CAD7" transform="translate(134,185)"/>
<path d="M0 0 C0.825 0.33 1.65 0.66 2.5 1 C-0.5 3 -0.5 3 -2.375 3.25 C-5.81186915 4.46301264 -7.31249597 7.14409196 -9.5 10 C-10.16 9.34 -10.82 8.68 -11.5 8 C-4.60284464 0 -4.60284464 0 0 0 Z " fill="#F8C7D1" transform="translate(184.5,109)"/>
<path d="M0 0 C0.99 0.33 1.98 0.66 3 1 C1.02 3.31 -0.96 5.62 -3 8 C-3.66 7.67 -4.32 7.34 -5 7 C-3.70700306 4.11562221 -2.34058637 2.12780579 0 0 Z " fill="#F9D8E0" transform="translate(152,149)"/>
<path d="M0 0 C0 3 0 3 -1.6875 5.6875 C-4 8 -4 8 -6.75 8.3125 C-7.86375 8.1578125 -7.86375 8.1578125 -9 8 C-7.88625 7.13375 -7.88625 7.13375 -6.75 6.25 C-4.33912357 4.27746474 -2.15957299 2.23955718 0 0 Z " fill="#FACCD4" transform="translate(124,141)"/>
<path d="M0 0 C1.20628008 2.33214148 2.1654738 4.49642139 3 7 C2.67 7.66 2.34 8.32 2 9 C-1.3 9 -4.6 9 -8 9 C-8 8.67 -8 8.34 -8 8 C-5.03 8 -2.06 8 1 8 C0.649375 7.236875 0.29875 6.47375 -0.0625 5.6875 C-1 3 -1 3 0 0 Z " fill="#FECED1" transform="translate(31,91)"/>
<path d="M0 0 C0 3 0 3 -1.53125 4.60546875 C-2.1809375 5.12753906 -2.830625 5.64960937 -3.5 6.1875 C-4.1496875 6.71730469 -4.799375 7.24710938 -5.46875 7.79296875 C-5.9740625 8.19128906 -6.479375 8.58960938 -7 9 C-5.64978174 4.58110387 -3.73884332 2.65654657 0 0 Z " fill="#FB0D20" transform="translate(114,43)"/>
<path d="M0 0 C1.75 1.5625 1.75 1.5625 3 3 C2.67 3.66 2.34 4.32 2 5 C1.2575 4.54625 0.515 4.0925 -0.25 3.625 C-2.46930578 2.31359204 -4.67967822 1.11719197 -7 0 C-3.83170302 -1.05609899 -3.01480825 -1.13055309 0 0 Z " fill="#FDDEE2" transform="translate(104,122)"/>
</svg>
