<?xml version="1.0" standalone="no"?>
<!DOCTYPE svg PUBLIC "-//W3C//DTD SVG 20010904//EN"
 "http://www.w3.org/TR/2001/REC-SVG-20010904/DTD/svg10.dtd">
<svg version="1.0" xmlns="http://www.w3.org/2000/svg"
 width="1024.000000pt" height="1024.000000pt" viewBox="0 0 1024.000000 1024.000000"
 preserveAspectRatio="xMidYMid meet">

<g transform="translate(0.000000,1024.000000) scale(0.100000,-0.100000)"
fill="#000000" stroke="none">
<path d="M7030 7994 c-8 -2 -161 -5 -340 -6 l-325 -4 -5 -39 c-3 -22 -1 -128
4 -236 l9 -195 346 0 c336 1 347 0 386 -21 53 -28 99 -78 124 -133 20 -44 21
-62 21 -854 l0 -809 183 7 c100 3 205 9 234 13 l51 6 7 111 c3 61 5 455 3 876
-4 683 -6 772 -21 829 -59 220 -219 374 -444 430 -73 18 -199 32 -233 25z"/>
<path d="M3217 7980 c-183 -31 -345 -145 -444 -315 -81 -137 -78 -98 -77 -998
1 -440 6 -802 10 -806 11 -8 451 2 459 11 3 3 7 333 7 732 1 813 -5 746 76
830 83 85 25 81 1047 82 495 0 1072 1 1283 2 l383 2 -1 229 c-1 227 -2 229
-23 235 -34 9 -2666 5 -2720 -4z"/>
<path d="M6512 7113 c-53 -26 -125 -97 -156 -153 -26 -47 -28 -59 -24 -124 8
-115 54 -189 146 -235 97 -49 202 -33 289 42 131 116 145 295 31 404 -77 74
-209 104 -286 66z"/>
<path d="M3568 6435 c-2 -360 -3 -655 -3 -655 0 6 225 26 256 23 l46 -5 23 56
c12 31 30 67 40 79 9 12 27 51 39 87 20 57 24 97 33 325 12 316 3 297 145 303
54 2 103 8 109 13 7 5 22 38 35 72 13 34 56 125 96 203 40 78 73 144 73 148 0
3 -200 6 -445 6 l-445 0 -2 -655z"/>
<path d="M4896 7081 c-2 -3 -9 -24 -16 -45 -7 -21 -33 -82 -57 -135 -25 -53
-64 -141 -88 -196 -23 -55 -56 -131 -73 -170 -17 -38 -81 -189 -141 -335 -170
-412 -244 -581 -335 -765 -194 -389 -391 -798 -441 -915 -29 -69 -83 -190
-119 -269 l-67 -144 3 -121 3 -121 105 -3 c58 -2 151 0 208 3 99 7 102 8 102
31 0 28 27 102 46 124 7 8 19 40 28 71 9 31 28 71 42 90 14 19 32 59 41 89 8
30 31 84 49 119 19 35 34 70 34 77 0 14 79 187 125 274 22 44 108 239 135 310
8 19 24 51 36 70 13 19 26 49 30 65 4 17 22 53 40 81 29 47 97 177 192 369 19
39 38 72 42 75 8 6 60 133 60 148 0 5 9 17 20 27 11 10 29 47 40 82 11 34 28
75 39 90 11 16 29 63 40 106 12 43 30 95 40 116 11 20 27 63 37 96 9 33 27 76
38 95 12 19 30 58 41 85 10 28 28 68 41 90 25 44 91 207 134 330 15 44 31 87
34 95 5 13 -25 15 -239 16 -135 0 -247 -2 -249 -5z"/>
<path d="M5509 7088 c-7 -24 -10 -87 -14 -318 -3 -151 -10 -365 -15 -475 -5
-110 -6 -381 -3 -602 l6 -403 -34 0 c-76 0 -517 -30 -533 -36 -9 -3 -32 -38
-51 -78 -19 -39 -61 -116 -95 -171 -79 -131 -95 -163 -86 -172 4 -5 183 -8
397 -8 l389 0 2 -115 c2 -63 3 -278 3 -477 0 -200 3 -363 8 -363 4 0 109 0
235 0 l227 0 -3 1610 -2 1610 -215 0 c-118 0 -215 -1 -216 -2z"/>
<path d="M6463 6163 l-93 -4 0 -337 0 -338 223 4 c122 2 225 7 228 11 4 3 10
156 13 339 l7 332 -143 -2 c-79 -1 -185 -4 -235 -5z"/>
<path d="M3006 5442 c-2 -1 -71 -3 -154 -3 l-152 -1 0 -958 c0 -944 0 -959 21
-1026 64 -211 205 -358 409 -427 73 -25 108 -30 245 -38 191 -10 734 -10 755
-1 13 6 15 41 15 229 0 214 0 222 -20 227 -11 3 -188 6 -393 6 -429 0 -414 -3
-489 89 -81 99 -76 19 -67 1012 l7 888 -24 5 c-23 5 -148 4 -153 -2z"/>
<path d="M7251 4953 c0 -175 2 -333 5 -350 l6 -33 234 0 234 0 0 350 -1 350
-238 0 -239 0 -1 -317z"/>
<path d="M6366 5036 c-7 -32 -8 -1160 -2 -1167 2 -2 111 -3 242 -1 l237 3 -6
597 c-4 328 -7 597 -7 597 0 0 -103 0 -229 0 l-229 0 -6 -29z"/>
<path d="M4553 4370 c-13 -61 -10 -1357 4 -1371 8 -8 338 -11 1314 -10 1461 2
1354 -4 1509 77 170 88 292 245 335 428 11 46 15 135 15 364 l0 302 -22 0
c-13 0 -120 1 -238 2 l-215 3 -5 -272 -5 -272 -60 -61 c-107 -108 -1 -98
-1100 -102 l-960 -3 -32 23 c-17 12 -42 39 -55 60 l-23 37 4 412 3 412 -231 3
-231 3 -7 -35z"/>
</g>
</svg>
