<?xml version="1.0" encoding="UTF-8"?>
<svg version="1.1" xmlns="http://www.w3.org/2000/svg" width="240" height="240">
<path d="M0 0 C79.2 0 158.4 0 240 0 C240 79.2 240 158.4 240 240 C160.8 240 81.6 240 0 240 C0 160.8 0 81.6 0 0 Z " fill="#FEFEFE" transform="translate(0,0)"/>
<path d="M0 0 C0.97130859 -0.00773437 1.94261719 -0.01546875 2.94335938 -0.0234375 C4.35391602 -0.01957031 4.35391602 -0.01957031 5.79296875 -0.015625 C6.63754639 -0.01336914 7.48212402 -0.01111328 8.35229492 -0.00878906 C11.12175791 0.28253085 13.28285063 1.11215213 15.8125 2.25 C15.8125 2.91 15.8125 3.57 15.8125 4.25 C16.493125 4.37375 17.17375 4.4975 17.875 4.625 C20.8125 5.25 20.8125 5.25 24.1875 6.3125 C27.88591482 7.26898659 31.01108934 7.40515962 34.8125 7.25 C34.8125 6.59 34.8125 5.93 34.8125 5.25 C36.41506108 4.74487756 38.01961792 4.24608373 39.625 3.75 C40.51832031 3.4715625 41.41164063 3.193125 42.33203125 2.90625 C44.8125 2.25 44.8125 2.25 47.8125 2.25 C47.8125 1.59 47.8125 0.93 47.8125 0.25 C51.74518867 0.22526132 55.67784713 0.20712165 59.6105957 0.19506836 C61.60564768 0.18757271 63.60067786 0.17486655 65.59570312 0.16210938 C66.84931641 0.15888672 68.10292969 0.15566406 69.39453125 0.15234375 C70.55186768 0.14710693 71.7092041 0.14187012 72.90161133 0.13647461 C75.8125 0.25 75.8125 0.25 78.8125 1.25 C78.8125 1.91 78.8125 2.57 78.8125 3.25 C79.493125 3.353125 80.17375 3.45625 80.875 3.5625 C84.44570419 4.39819673 87.53326626 5.61038313 90.8125 7.25 C91.1425 8.24 91.4725 9.23 91.8125 10.25 C92.8025 10.25 93.7925 10.25 94.8125 10.25 C94.8125 10.91 94.8125 11.57 94.8125 12.25 C95.39644531 12.52070312 95.98039063 12.79140625 96.58203125 13.0703125 C107.15400598 18.66179476 115.3429407 30.02495522 118.8125 41.25 C119.4725 42.24 120.1325 43.23 120.8125 44.25 C121.76757671 49.90137748 122.00549424 55.46372617 122 61.1875 C121.99991943 61.97511719 121.99983887 62.76273438 121.99975586 63.57421875 C121.93937381 69.71666254 121.61400047 75.64699907 118.8125 81.25 C118.1525 81.25 117.4925 81.25 116.8125 81.25 C116.73 82.466875 116.6475 83.68375 116.5625 84.9375 C116.0245527 89.14527958 114.72812521 91.09797274 111.8125 94.25 C110.86629684 95.53530487 109.92955299 96.82760251 109 98.125 C103.72408599 105.14196563 97.64029332 111.10855121 89.8125 115.25 C88.8225 115.25 87.8325 115.25 86.8125 115.25 C86.4825 116.24 86.1525 117.23 85.8125 118.25 C84.8225 118.745 84.8225 118.745 83.8125 119.25 C83.0926041 121.09782997 82.46035174 122.98024697 81.875 124.875 C81.51921875 125.96941406 81.1634375 127.06382812 80.796875 128.19140625 C80.47203125 129.20074219 80.1471875 130.21007812 79.8125 131.25 C76.24321614 141.95785157 66.9141605 151.77034103 57.8125 158.25 C55.015625 158.9921875 55.015625 158.9921875 52.8125 159.25 C52.8125 159.91 52.8125 160.57 52.8125 161.25 C45.52678571 164.67857143 45.52678571 164.67857143 40.8125 164.25 C40.8125 164.91 40.8125 165.57 40.8125 166.25 C35.35273314 167.39084681 30.04876753 167.39856165 24.5 167.375 C23.15131836 167.38080078 23.15131836 167.38080078 21.77539062 167.38671875 C6.48440897 167.36460598 6.48440897 167.36460598 1.8125 164.25 C-0.1771995 163.85986284 -2.17769869 163.51797351 -4.1875 163.25 C-4.1875 162.59 -4.1875 161.93 -4.1875 161.25 C-5.8375 160.92 -7.4875 160.59 -9.1875 160.25 C-9.1875 159.59 -9.1875 158.93 -9.1875 158.25 C-9.70828125 158.03085938 -10.2290625 157.81171875 -10.765625 157.5859375 C-14.14740101 155.72050622 -16.98006149 153.34494865 -19.9375 150.875 C-20.53949219 150.39289063 -21.14148438 149.91078125 -21.76171875 149.4140625 C-23.484375 147.9765625 -23.484375 147.9765625 -26.1875 145.25 C-26.1875 143.93 -26.1875 142.61 -26.1875 141.25 C-27.1775 140.92 -28.1675 140.59 -29.1875 140.25 C-30.35546875 137.81640625 -30.35546875 137.81640625 -31.375 134.8125 C-31.71917969 133.82378906 -32.06335938 132.83507812 -32.41796875 131.81640625 C-33.1875 129.25 -33.1875 129.25 -33.1875 127.25 C-33.8475 127.25 -34.5075 127.25 -35.1875 127.25 C-35.34605469 126.12980469 -35.50460938 125.00960937 -35.66796875 123.85546875 C-35.90249735 122.38262916 -36.13823803 120.90998222 -36.375 119.4375 C-36.47619141 118.69951172 -36.57738281 117.96152344 -36.68164062 117.20117188 C-37.44022521 112.621706 -37.44022521 112.621706 -40.6484375 109.46875 C-41.48632812 109.0665625 -42.32421875 108.664375 -43.1875 108.25 C-44.55859375 106.48828125 -44.55859375 106.48828125 -45.625 104.5625 C-47.27388262 101.72190159 -48.99479301 99.17535478 -51.0625 96.625 C-62.60269921 81.48785558 -63.57744056 64.97073414 -61.84375 46.609375 C-60.96498442 41.24890494 -59.82884441 36.71478395 -55.7265625 32.88671875 C-54.00926354 31.06045412 -53.07377189 29.32112362 -52 27.0625 C-51.65582031 26.34707031 -51.31164063 25.63164063 -50.95703125 24.89453125 C-50.57611328 24.08048828 -50.57611328 24.08048828 -50.1875 23.25 C-49.5275 23.25 -48.8675 23.25 -48.1875 23.25 C-47.919375 22.610625 -47.65125 21.97125 -47.375 21.3125 C-46.1875 19.25 -46.1875 19.25 -43.1875 18.25 C-42.8575 17.59 -42.5275 16.93 -42.1875 16.25 C-41.1875 14.25 -41.1875 14.25 -38.1875 13.25 C-38.1875 12.59 -38.1875 11.93 -38.1875 11.25 C-32.42898094 6.93411619 -26.1029651 4.09712749 -19.1875 2.25 C-17.41826172 1.7240625 -17.41826172 1.7240625 -15.61328125 1.1875 C-10.4295015 -0.09396511 -5.31314686 -0.04281918 0 0 Z " fill="#FACF31" transform="translate(94.1875,35.75)"/>
<path d="M0 0 C3.93268867 -0.02473868 7.86534713 -0.04287835 11.7980957 -0.05493164 C13.79314768 -0.06242729 15.78817786 -0.07513345 17.78320312 -0.08789062 C19.03681641 -0.09111328 20.29042969 -0.09433594 21.58203125 -0.09765625 C22.73936768 -0.10289307 23.8967041 -0.10812988 25.08911133 -0.11352539 C28 0 28 0 31 1 C31 1.66 31 2.32 31 3 C31.680625 3.103125 32.36125 3.20625 33.0625 3.3125 C36.63320419 4.14819673 39.72076626 5.36038313 43 7 C43.495 8.485 43.495 8.485 44 10 C44.99 10 45.98 10 47 10 C47 10.66 47 11.32 47 12 C47.58394531 12.27070312 48.16789062 12.54140625 48.76953125 12.8203125 C59.34150598 18.41179476 67.5304407 29.77495522 71 41 C71.66 41.99 72.32 42.98 73 44 C73.95507671 49.65137748 74.19299424 55.21372617 74.1875 60.9375 C74.18741943 61.72511719 74.18733887 62.51273438 74.18725586 63.32421875 C74.12687381 69.46666254 73.80150047 75.39699907 71 81 C70.34 81 69.68 81 69 81 C68.9175 82.216875 68.835 83.43375 68.75 84.6875 C68.2120527 88.89527958 66.91562521 90.84797274 64 94 C63.05379684 95.28530487 62.11705299 96.57760251 61.1875 97.875 C55.15244385 105.90162468 47.35574971 114.43755355 37 116 C37.04640625 115.030625 37.0928125 114.06125 37.140625 113.0625 C37.69190979 96.35562502 34.19988792 80.0577898 23 67.0625 C17.87264723 61.68314124 12.75745819 57.6661799 6.1484375 54.2109375 C4 53 4 53 1.95703125 51.41796875 C-1.04436168 49.24330681 -4.44445739 48.77100476 -8 48 C-8.65742188 47.81308594 -9.31484375 47.62617187 -9.9921875 47.43359375 C-20.98934953 44.46643494 -31.75152861 45.3139804 -42.390625 49.125 C-45 50 -45 50 -48 50 C-47.09068323 41.05838509 -47.09068323 41.05838509 -45 37 C-44.01 36.505 -44.01 36.505 -43 36 C-42.09274566 33.88672575 -42.09274566 33.88672575 -41.375 31.4375 C-41.11460938 30.61121094 -40.85421875 29.78492187 -40.5859375 28.93359375 C-40.39257812 28.29550781 -40.19921875 27.65742187 -40 27 C-39.34 27 -38.68 27 -38 27 C-37.731875 26.41863281 -37.46375 25.83726563 -37.1875 25.23828125 C-33.24814561 17.81311655 -26.34466205 11.9163963 -19 8 C-15.69140625 7.30859375 -15.69140625 7.30859375 -13 7 C-13 6.34 -13 5.68 -13 5 C-11.39743892 4.49487756 -9.79288208 3.99608373 -8.1875 3.5 C-7.29417969 3.2215625 -6.40085938 2.943125 -5.48046875 2.65625 C-3 2 -3 2 0 2 C0 1.34 0 0.68 0 0 Z " fill="#0349AD" transform="translate(142,36)"/>
<path d="M0 0 C0.33 0 0.66 0 1 0 C1.40560476 11.40200053 1.69401836 21.36022505 -3 32 C-3.5878125 33.7634375 -3.5878125 33.7634375 -4.1875 35.5625 C-8.94360529 44.58269968 -16.69313599 53.08617297 -25 59 C-27.796875 59.7421875 -27.796875 59.7421875 -30 60 C-30 60.66 -30 61.32 -30 62 C-37.28571429 65.42857143 -37.28571429 65.42857143 -42 65 C-42 65.66 -42 66.32 -42 67 C-47.45976686 68.14084681 -52.76373247 68.14856165 -58.3125 68.125 C-59.21162109 68.12886719 -60.11074219 68.13273437 -61.03710938 68.13671875 C-76.32809103 68.11460598 -76.32809103 68.11460598 -81 65 C-82.9896995 64.60986284 -84.99019869 64.26797351 -87 64 C-87 63.34 -87 62.68 -87 62 C-88.65 61.67 -90.3 61.34 -92 61 C-92 60.34 -92 59.68 -92 59 C-92.52078125 58.78085938 -93.0415625 58.56171875 -93.578125 58.3359375 C-96.95990101 56.47050622 -99.79256149 54.09494865 -102.75 51.625 C-103.35199219 51.14289063 -103.95398438 50.66078125 -104.57421875 50.1640625 C-106.296875 48.7265625 -106.296875 48.7265625 -109 46 C-109 44.68 -109 43.36 -109 42 C-109.99 41.67 -110.98 41.34 -112 41 C-113.203125 38.63671875 -113.203125 38.63671875 -114.25 35.6875 C-114.78367188 34.23923828 -114.78367188 34.23923828 -115.328125 32.76171875 C-116.00546613 29.97753166 -115.98017307 28.64521065 -115 26 C-114.67 26.33 -114.34 26.66 -114 27 C-113.67 25.68 -113.34 24.36 -113 23 C-113.66 22.67 -114.32 22.34 -115 22 C-115 21.01 -115 20.02 -115 19 C-110.05 18.67 -105.1 18.34 -100 18 C-100 14.7 -100 11.4 -100 8 C-97.32072659 12.01891012 -97.84398752 14.24161923 -98 19 C-97.01 19 -96.02 19 -95 19 C-95 17.35 -95 15.7 -95 14 C-92.03 14 -89.06 14 -86 14 C-86 15.32 -86 16.64 -86 18 C-84.68 18 -83.36 18 -82 18 C-82 13.71 -82 9.42 -82 5 C-81.34 5 -80.68 5 -80 5 C-80 9.29 -80 13.58 -80 18 C-78.68 18 -77.36 18 -76 18 C-76 14.04 -76 10.08 -76 6 C-75.67 6 -75.34 6 -75 6 C-75 9.96 -75 13.92 -75 18 C-73.68 18 -72.36 18 -71 18 C-71 16.02 -71 14.04 -71 12 C-68.48916886 13.25541557 -68.12874554 14.50063488 -67 17 C-63.20411134 16.45773019 -61.52788007 14.79872437 -59 12 C-59 13.98 -59 15.96 -59 18 C-58.17242187 17.83628906 -57.34484375 17.67257813 -56.4921875 17.50390625 C-52.67805811 16.9535453 -48.96646499 16.88910945 -45.125 16.9375 C-44.43664062 16.94201172 -43.74828125 16.94652344 -43.0390625 16.95117188 C-41.35933665 16.96283664 -39.67965625 16.98076729 -38 17 C-38.99 14.03 -38.99 14.03 -40 11 C-39.01 11.33 -38.02 11.66 -37 12 C-36.505 13.2684375 -36.505 13.2684375 -36 14.5625 C-34.24274597 17.26577659 -34.24274597 17.26577659 -31.3984375 17.36328125 C-28.5650093 17.37426353 -25.81553583 17.32098943 -23 17 C-21.33657163 15.33657163 -21.63951903 13.2174291 -21.4375 10.9375 C-21.31181641 9.55884766 -21.31181641 9.55884766 -21.18359375 8.15234375 C-21.12300781 7.44207031 -21.06242187 6.73179687 -21 6 C-20.67 6 -20.34 6 -20 6 C-19.97421875 6.77085937 -19.9484375 7.54171875 -19.921875 8.3359375 C-19.86515625 9.33882812 -19.8084375 10.34171875 -19.75 11.375 C-19.70359375 12.37273437 -19.6571875 13.37046875 -19.609375 14.3984375 C-19.27839115 17.1526477 -19.27839115 17.1526477 -16.953125 18.3515625 C-16.30859375 18.56554687 -15.6640625 18.77953125 -15 19 C-15 17.68 -15 16.36 -15 15 C-11.04 14.67 -7.08 14.34 -3 14 C-3 11.69 -3 9.38 -3 7 C-2.34 7 -1.68 7 -1 7 C-0.67 4.69 -0.34 2.38 0 0 Z " fill="#FDD12E" transform="translate(177,135)"/>
<path d="M0 0 C0.97130859 -0.00773437 1.94261719 -0.01546875 2.94335938 -0.0234375 C4.35391602 -0.01957031 4.35391602 -0.01957031 5.79296875 -0.015625 C6.63754639 -0.01336914 7.48212402 -0.01111328 8.35229492 -0.00878906 C11.12175791 0.28253085 13.28285063 1.11215213 15.8125 2.25 C15.8125 2.91 15.8125 3.57 15.8125 4.25 C16.4725 4.353125 17.1325 4.45625 17.8125 4.5625 C21.65091009 5.44213564 25.14346691 6.81969896 28.8125 8.25 C26.46621331 10.73036021 24.37698926 12.92612772 21.40234375 14.6328125 C18.57294697 16.39958515 16.73700244 18.29356302 14.5625 20.8125 C13.87671875 21.59753906 13.1909375 22.38257812 12.484375 23.19140625 C10.77522059 25.14395781 10.77522059 25.14395781 9.8125 27.25 C9.1525 27.25 8.4925 27.25 7.8125 27.25 C7.70292969 27.88808594 7.59335938 28.52617188 7.48046875 29.18359375 C7.32191406 30.00988281 7.16335937 30.83617188 7 31.6875 C6.77376953 32.92306641 6.77376953 32.92306641 6.54296875 34.18359375 C6.30191406 34.86550781 6.06085938 35.54742187 5.8125 36.25 C4.3275 36.745 4.3275 36.745 2.8125 37.25 C2.15333503 39.85635527 2.15333503 39.85635527 1.75 42.9375 C0.90887385 46.77285238 0.40132262 48.71515278 -2.53125 51.37890625 C-9.02349398 55.25 -9.02349398 55.25 -12.1875 55.25 C-12.1875 55.91 -12.1875 56.57 -12.1875 57.25 C-13.1465625 57.4046875 -13.1465625 57.4046875 -14.125 57.5625 C-14.805625 57.789375 -15.48625 58.01625 -16.1875 58.25 C-16.5175 59.24 -16.8475 60.23 -17.1875 61.25 C-18.33661971 62.39911971 -19.48918659 63.54502884 -20.66015625 64.671875 C-28.01451378 72.27075081 -34.93760057 81.76908549 -35.8203125 92.55078125 C-35.94599609 94.01547852 -35.94599609 94.01547852 -36.07421875 95.50976562 C-36.19216797 97.02086914 -36.19216797 97.02086914 -36.3125 98.5625 C-36.39886719 99.58923828 -36.48523438 100.61597656 -36.57421875 101.67382812 C-36.78560577 104.19872866 -36.98979351 106.72399758 -37.1875 109.25 C-42.7593767 108.70658895 -42.7593767 108.70658895 -44.65625 106.68359375 C-44.9965625 106.02488281 -45.336875 105.36617188 -45.6875 104.6875 C-47.30280984 101.77068255 -48.954079 99.20753683 -51.0625 96.625 C-62.60269921 81.48785558 -63.57744056 64.97073414 -61.84375 46.609375 C-60.96498442 41.24890494 -59.82884441 36.71478395 -55.7265625 32.88671875 C-54.00926354 31.06045412 -53.07377189 29.32112362 -52 27.0625 C-51.65582031 26.34707031 -51.31164063 25.63164063 -50.95703125 24.89453125 C-50.57611328 24.08048828 -50.57611328 24.08048828 -50.1875 23.25 C-49.5275 23.25 -48.8675 23.25 -48.1875 23.25 C-47.919375 22.610625 -47.65125 21.97125 -47.375 21.3125 C-46.1875 19.25 -46.1875 19.25 -43.1875 18.25 C-42.8575 17.59 -42.5275 16.93 -42.1875 16.25 C-41.1875 14.25 -41.1875 14.25 -38.1875 13.25 C-38.1875 12.59 -38.1875 11.93 -38.1875 11.25 C-32.42898094 6.93411619 -26.1029651 4.09712749 -19.1875 2.25 C-17.41826172 1.7240625 -17.41826172 1.7240625 -15.61328125 1.1875 C-10.4295015 -0.09396511 -5.31314686 -0.04281918 0 0 Z " fill="#FE3031" transform="translate(94.1875,35.75)"/>
<path d="M0 0 C9.9609375 -0.1953125 9.9609375 -0.1953125 13 0 C15 2 15 2 15.1953125 4.6015625 C15.13020833 7.40104167 15.06510417 10.20052083 15 13 C10.05 13 5.1 13 0 13 C0 8.71 0 4.42 0 0 Z " fill="#5A6B9A" transform="translate(62,140)"/>
<path d="M0 0 C2.50028471 1.64140828 3.98979184 3.46519609 5.796875 5.84375 C6.41046875 6.6378125 7.0240625 7.431875 7.65625 8.25 C9.046875 10.34375 9.046875 10.34375 9.046875 12.34375 C9.706875 12.34375 10.366875 12.34375 11.046875 12.34375 C11.046875 13.33375 11.046875 14.32375 11.046875 15.34375 C11.706875 15.34375 12.366875 15.34375 13.046875 15.34375 C16.01785592 21.06461559 17.51415176 25.91280167 17.7734375 32.375 C17.86367187 33.0246875 17.95390625 33.674375 18.046875 34.34375 C18.706875 34.67375 19.366875 35.00375 20.046875 35.34375 C19.89347656 36.01792969 19.74007812 36.69210938 19.58203125 37.38671875 C18.96203643 40.81252952 18.7116176 44.18268447 18.484375 47.65625 C18.40058594 48.91050781 18.31679687 50.16476563 18.23046875 51.45703125 C18.13958984 52.88595703 18.13958984 52.88595703 18.046875 54.34375 C17.716875 54.34375 17.386875 54.34375 17.046875 54.34375 C17.02109375 53.51875 16.9953125 52.69375 16.96875 51.84375 C16.05835613 33.30482036 11.46710476 16.82120889 -1.953125 3.34375 C-2.52675781 2.76753906 -3.10039062 2.19132812 -3.69140625 1.59765625 C-4.10777344 1.18386719 -4.52414063 0.77007812 -4.953125 0.34375 C-1.953125 -0.65625 -1.953125 -0.65625 0 0 Z " fill="#1E48AB" transform="translate(162.953125,95.65625)"/>
<path d="M0 0 C10.83984375 -0.09765625 10.83984375 -0.09765625 14 0 C15 1 15 1 15.09765625 2.84765625 C15.04882812 5.92382812 15.04882812 5.92382812 15 9 C12.47524538 10.26237731 10.68799534 10.09856404 7.875 10.0625 C6.96492187 10.05347656 6.05484375 10.04445312 5.1171875 10.03515625 C4.41851562 10.02355469 3.71984375 10.01195312 3 10 C3 11.32 3 12.64 3 14 C2.01 14 1.02 14 0 14 C0 9.38 0 4.76 0 0 Z " fill="#7B8087" transform="translate(159,140)"/>
<path d="M0 0 C0.99 0 1.98 0 3 0 C3 4.29 3 8.58 3 13 C2.01 13 1.02 13 0 13 C-0.33 11.35 -0.66 9.7 -1 8 C-2.32 9.65 -3.64 11.3 -5 13 C-6.875 12.75 -6.875 12.75 -9 12 C-10.25 9.9375 -10.25 9.9375 -11 8 C-11.33 9.65 -11.66 11.3 -12 13 C-12.99 13 -13.98 13 -15 13 C-15 9.04 -15 5.08 -15 1 C-14.01 1 -13.02 1 -12 1 C-12 1.66 -12 2.32 -12 3 C-11.34 3 -10.68 3 -10 3 C-8.375 5.5 -8.375 5.5 -7 8 C-3.59548229 6.86516076 -3.3994436 6.44722063 -1.8125 3.4375 C-1.214375 2.303125 -0.61625 1.16875 0 0 Z " fill="#747790" transform="translate(118,140)"/>
<path d="M0 0 C0.33 0 0.66 0 1 0 C1.05449838 1.72880982 1.09301688 3.45812712 1.125 5.1875 C1.14820313 6.15042969 1.17140625 7.11335938 1.1953125 8.10546875 C0.53326943 17.91694698 -8.27863442 26.98322944 -15.03515625 33.5390625 C-18.04312702 35.77560538 -20.29792163 36 -24 36 C-23.01 35.505 -23.01 35.505 -22 35 C-22 34.34 -22 33.68 -22 33 C-20.02 32.505 -20.02 32.505 -18 32 C-18 31.34 -18 30.68 -18 30 C-17.34 30 -16.68 30 -16 30 C-15.67 29.01 -15.34 28.02 -15 27 C-14.360625 26.87625 -13.72125 26.7525 -13.0625 26.625 C-12.381875 26.41875 -11.70125 26.2125 -11 26 C-9.78702351 23.7193293 -9.78702351 23.7193293 -9 21 C-8.33333333 19.33333333 -7.66666667 17.66666667 -7 16 C-6.34 16 -5.68 16 -5 16 C-5 15.01 -5 14.02 -5 13 C-4.34 13 -3.68 13 -3 13 C-2.87625 11.783125 -2.7525 10.56625 -2.625 9.3125 C-2.21108694 5.93520941 -1.45426549 3.10243305 0 0 Z " fill="#173AAA" transform="translate(210,110)"/>
<path d="M0 0 C0.99 0 1.98 0 3 0 C3 4.29 3 8.58 3 13 C1.68 13 0.36 13 -1 13 C-1 11.68 -1 10.36 -1 9 C-3.97 9 -6.94 9 -10 9 C-10 10.32 -10 11.64 -10 13 C-10.66 13 -11.32 13 -12 13 C-12 9.04 -12 5.08 -12 1 C-11.34 1 -10.68 1 -10 1 C-10 2.32 -10 3.64 -10 5 C-6.7 5 -3.4 5 0 5 C0 3.35 0 1.7 0 0 Z " fill="#848589" transform="translate(92,140)"/>
<path d="M0 0 C0 0.99 0 1.98 0 3 C0.33 3.99 0.66 4.98 1 6 C0.34 6.66 -0.32 7.32 -1 8 C-1 7.34 -1 6.68 -1 6 C-1.66 6 -2.32 6 -3 6 C-2.814375 6.7425 -2.62875 7.485 -2.4375 8.25 C-2.00796892 10.94990963 -2.14877026 12.44631077 -3 15 C-3.99 15 -4.98 15 -6 15 C-6.144375 15.763125 -6.28875 16.52625 -6.4375 17.3125 C-7 20 -7 20 -8 23 C-5.03 23 -2.06 23 1 23 C-2.00440021 25.00293347 -3.70993945 25.49271626 -7.1875 26.125 C-8.08855469 26.29257813 -8.98960938 26.46015625 -9.91796875 26.6328125 C-10.60503906 26.75398438 -11.29210937 26.87515625 -12 27 C-11.09068323 18.05838509 -11.09068323 18.05838509 -9 14 C-8.34 13.67 -7.68 13.34 -7 13 C-6.09274566 10.88672575 -6.09274566 10.88672575 -5.375 8.4375 C-4.98441406 7.19806641 -4.98441406 7.19806641 -4.5859375 5.93359375 C-4.39257812 5.29550781 -4.19921875 4.65742187 -4 4 C-3.34 4 -2.68 4 -2 4 C-1.34 2.68 -0.68 1.36 0 0 Z " fill="#2946A6" transform="translate(106,59)"/>
<path d="M0 0 C3.93268867 -0.02473868 7.86534713 -0.04287835 11.7980957 -0.05493164 C13.79314768 -0.06242729 15.78817786 -0.07513345 17.78320312 -0.08789062 C19.03681641 -0.09111328 20.29042969 -0.09433594 21.58203125 -0.09765625 C22.73936768 -0.10289307 23.8967041 -0.10812988 25.08911133 -0.11352539 C28 0 28 0 31 1 C31 1.66 31 2.32 31 3 C31.680625 3.103125 32.36125 3.20625 33.0625 3.3125 C36.67054778 4.15693671 39.65617122 5.39239001 43 7 C43.495 7.99 43.495 7.99 44 9 C41.525 8.505 41.525 8.505 39 8 C39.99 8.99 40.98 9.98 42 11 C37.545 10.01 37.545 10.01 33 9 C33 8.34 33 7.68 33 7 C31.35 7 29.7 7 28 7 C28 6.34 28 5.68 28 5 C28.66 4.67 29.32 4.34 30 4 C23.71274041 1.80614772 17.68460222 1.57230658 11.0625 1.375 C9.99708984 1.33632813 8.93167969 1.29765625 7.83398438 1.2578125 C5.22282266 1.16413854 2.61165696 1.07841665 0 1 C0 0.67 0 0.34 0 0 Z " fill="#6D85C2" transform="translate(142,36)"/>
<path d="M0 0 C3.96 0 7.92 0 12 0 C12.33 0.66 12.66 1.32 13 2 C9.04 1.67 5.08 1.34 1 1 C1 2.32 1 3.64 1 5 C2.15628906 4.96519531 2.15628906 4.96519531 3.3359375 4.9296875 C4.33882812 4.91164062 5.34171875 4.89359375 6.375 4.875 C7.37273437 4.85179687 8.37046875 4.82859375 9.3984375 4.8046875 C12 5 12 5 14 7 C14 8.32 14 9.64 14 11 C11.23547967 12.38226016 8.9538637 12.09525387 5.875 12.0625 C4.77929688 12.05347656 3.68359375 12.04445312 2.5546875 12.03515625 C1.29011719 12.01775391 1.29011719 12.01775391 0 12 C0 11.34 0 10.68 0 10 C3.63 10 7.26 10 11 10 C11 9.01 11 8.02 11 7 C7.37 7 3.74 7 0 7 C-1 2 -1 2 0 0 Z " fill="#4F669C" transform="translate(125,141)"/>
<path d="M0 0 C4.97306516 0.49730652 8.63799813 1.55302334 13 4 C13 4.66 13 5.32 13 6 C13.86044922 6.38671875 13.86044922 6.38671875 14.73828125 6.78125 C17.20509293 8.1105164 19.09168096 9.64404017 21.1875 11.5 C21.88230469 12.1084375 22.57710937 12.716875 23.29296875 13.34375 C25 15 25 15 26 17 C24.35 17 22.7 17 21 17 C21 16.34 21 15.68 21 15 C20.01 14.67 19.02 14.34 18 14 C18 13.34 18 12.68 18 12 C15.97833874 10.97781172 13.95415114 9.97898948 11.89453125 9.03515625 C11.20746094 8.71417969 10.52039063 8.39320312 9.8125 8.0625 C9.11769531 7.74410156 8.42289063 7.42570312 7.70703125 7.09765625 C6 6 6 6 5 3 C2.49552484 1.78130071 2.49552484 1.78130071 0 1 C0 0.67 0 0.34 0 0 Z " fill="#0E35A9" transform="translate(176,42)"/>
<path d="M0 0 C0.33 0 0.66 0 1 0 C1 3.96 1 7.92 1 12 C5.29 12 9.58 12 14 12 C14 12.33 14 12.66 14 13 C9.71 13 5.42 13 1 13 C1 13.99 1 14.98 1 16 C4.63 16 8.26 16 12 16 C12 16.33 12 16.66 12 17 C9.03 17 6.06 17 3 17 C2.67 18.65 2.34 20.3 2 22 C0.68 22 -0.64 22 -2 22 C-4.27678571 13.96428571 -4.27678571 13.96428571 -3 10 C-2 11 -2 11 -1 17 C-0.67 11.39 -0.34 5.78 0 0 Z " fill="#EAC659" transform="translate(61,141)"/>
<path d="M0 0 C2.73271934 0.0780777 4.45024259 0.44871972 6.41015625 2.4140625 C9.22427571 6.13887368 10.78812273 9.23276143 11 14 C10.5625 16.375 10.5625 16.375 10 18 C9.34 18 8.68 18 8 18 C7.75765625 17.34773438 7.5153125 16.69546875 7.265625 16.0234375 C5.2870699 10.86397458 3.16077089 6.51538698 0 2 C0 1.34 0 0.68 0 0 Z " fill="#1648AC" transform="translate(200,61)"/>
<path d="M0 0 C0.66 0 1.32 0 2 0 C2.05391993 1.79133978 2.09275571 3.58313899 2.125 5.375 C2.14820313 6.37273437 2.17140625 7.37046875 2.1953125 8.3984375 C2 11 2 11 0 13 C-2.53125 13.265625 -2.53125 13.265625 -5.5 13.25 C-6.4796875 13.25515625 -7.459375 13.2603125 -8.46875 13.265625 C-11 13 -11 13 -13 11 C-13.1953125 8.6171875 -13.1953125 8.6171875 -13.125 5.875 C-13.10695312 4.96492187 -13.08890625 4.05484375 -13.0703125 3.1171875 C-13.04710937 2.41851562 -13.02390625 1.71984375 -13 1 C-12.34 1 -11.68 1 -11 1 C-10.67 3.97 -10.34 6.94 -10 10 C-7.03 10 -4.06 10 -1 10 C-0.67 6.7 -0.34 3.4 0 0 Z " fill="#5A6D97" transform="translate(154,140)"/>
<path d="M0 0 C1 3 1 3 -0.375 5.9375 C-5.69622469 17.47896907 -3.09033264 33.75322801 -2 46 C-6.01320368 41.98679632 -5.14461187 34.87934661 -5.19018555 29.47460938 C-5.16784801 6.81216329 -5.16784801 6.81216329 0 0 Z " fill="#FA6E6E" transform="translate(37,70)"/>
<path d="M0 0 C3.63 0 7.26 0 11 0 C11 1.65 11 3.3 11 5 C7.37 5 3.74 5 0 5 C0 3.35 0 1.7 0 0 Z " fill="#CFB554" transform="translate(161,142)"/>
<path d="M0 0 C-2.08770553 1.11841368 -3.85408801 1.9708176 -6.1875 2.4375 C-7.0846875 2.7159375 -7.0846875 2.7159375 -8 3 C-8.33 3.99 -8.66 4.98 -9 6 C-10.9609375 6.80078125 -10.9609375 6.80078125 -13.375 7.3125 C-14.16648438 7.49425781 -14.95796875 7.67601562 -15.7734375 7.86328125 C-18 8 -18 8 -21 6 C-18.35261084 4.5393715 -17.10551666 4 -14 4 C-14 3.34 -14 2.68 -14 2 C-9.15758367 0.66416101 -5.06562383 -0.25328119 0 0 Z " fill="#1431AA" transform="translate(143,39)"/>
<path d="M0 0 C-1.44225601 3.3380049 -3.25221856 5.43843466 -5.875 7.9375 C-8.24022757 10.22988541 -10.32378431 12.40899071 -12.375 15 C-12.91125 15.66 -13.4475 16.32 -14 17 C-14.66 17 -15.32 17 -16 17 C-14.36223229 11.17682593 -6.61954116 0 0 0 Z " fill="#FCAE30" transform="translate(82,93)"/>
<path d="M0 0 C0.66 0.33 1.32 0.66 2 1 C2 5 2 5 -0.1875 7.5625 C-2.73053426 9.76646303 -4.96185838 11.56088028 -8 13 C-8.99 12.67 -9.98 12.34 -11 12 C-10.67 11.34 -10.34 10.68 -10 10 C-9.34 10 -8.68 10 -8 10 C-7.731875 9.360625 -7.46375 8.72125 -7.1875 8.0625 C-6 6 -6 6 -3 5 C-1.8499169 3.03327085 -1.8499169 3.03327085 -1 1 C-0.67 0.67 -0.34 0.34 0 0 Z " fill="#FD3939" transform="translate(54,49)"/>
<path d="M0 0 C1 2 1 2 1 6 C4.63 6.33 8.26 6.66 12 7 C12 7.99 12 8.98 12 10 C8.37 10 4.74 10 1 10 C0.67 10.66 0.34 11.32 0 12 C-0.87803368 8.26835686 -1.17423601 4.83319229 -1 1 C-0.67 0.67 -0.34 0.34 0 0 Z " fill="#D8BD4C" transform="translate(124,141)"/>
<path d="M0 0 C0.66 0.33 1.32 0.66 2 1 C2 4.63 2 8.26 2 12 C1.34 11.67 0.68 11.34 0 11 C0.33 9.02 0.66 7.04 1 5 C-2.96 5 -6.92 5 -11 5 C-11 4.01 -11 3.02 -11 2 C-7.37 2 -3.74 2 0 2 C0 1.34 0 0.68 0 0 Z " fill="#BDAD62" transform="translate(75,141)"/>
<path d="M0 0 C0.33 0.66 0.66 1.32 1 2 C-0.32 2 -1.64 2 -3 2 C-3 2.66 -3 3.32 -3 4 C-8.63526965 5.20484722 -14.14536115 5.1129643 -19.875 5.0625 C-20.84953125 5.05798828 -21.8240625 5.05347656 -22.828125 5.04882812 C-25.21881434 5.03710906 -27.6093744 5.02070219 -30 5 C-30.33 4.34 -30.66 3.68 -31 3 C-24.73 3.33 -18.46 3.66 -12 4 C-12 3.34 -12 2.68 -12 2 C-8.04 1.34 -4.08 0.68 0 0 Z " fill="#FDCE10" transform="translate(138,198)"/>
<path d="M0 0 C2.9375 1.75 2.9375 1.75 6 4 C6.165 4.70125 6.33 5.4025 6.5 6.125 C6.665 6.74375 6.83 7.3625 7 8 C7.928125 8.309375 8.85625 8.61875 9.8125 8.9375 C13.60088302 10.20029434 14.78340465 11.76036064 17 15 C12.67491123 15 12.0780278 14.6703719 8.875 12.125 C8.19179687 11.59132812 7.50859375 11.05765625 6.8046875 10.5078125 C5 9 5 9 3 7 C3 5.68 3 4.36 3 3 C2.01 2.67 1.02 2.34 0 2 C0 1.34 0 0.68 0 0 Z " fill="#FDD136" transform="translate(65,174)"/>
<path d="M0 0 C0.763125 0.804375 1.52625 1.60875 2.3125 2.4375 C4.79430898 5.16799024 4.79430898 5.16799024 8 6 C8.66 9.63 9.32 13.26 10 17 C9.34 17 8.68 17 8 17 C6.85170023 14.730384 5.70628022 12.45939222 4.5625 10.1875 C4.23701172 9.54490234 3.91152344 8.90230469 3.57617188 8.24023438 C2.20767324 5.51734534 0.96516735 2.89550206 0 0 Z " fill="#1B43AD" transform="translate(168,105)"/>
<path d="M0 0 C4.29 0 8.58 0 13 0 C13 0.99 13 1.98 13 3 C9.04 3 5.08 3 1 3 C0.67 3.66 0.34 4.32 0 5 C0 3.35 0 1.7 0 0 Z " fill="#747D8E" transform="translate(62,140)"/>
<path d="M0 0 C0.99 0.33 1.98 0.66 3 1 C2.67 2.32 2.34 3.64 2 5 C2.763125 4.938125 3.52625 4.87625 4.3125 4.8125 C7.48780806 5.03403312 7.95735659 5.71775032 10 8 C8.56359829 8.19573608 7.12580496 8.38127816 5.6875 8.5625 C4.88699219 8.66691406 4.08648437 8.77132812 3.26171875 8.87890625 C1 9 1 9 -2 8 C-1.47731534 5.23723823 -0.89130413 2.6739124 0 0 Z " fill="#1A4AAB" transform="translate(100,74)"/>
<path d="M0 0 C1.60080151 4.00200378 0.29279692 7.04556236 -1 11 C0.0725 10.649375 1.145 10.29875 2.25 9.9375 C5.78720743 9.05319814 6.74811124 8.97119449 10 10 C8.39743892 10.50512244 6.79288208 11.00391627 5.1875 11.5 C4.29417969 11.7784375 3.40085937 12.056875 2.48046875 12.34375 C0 13 0 13 -3 13 C-2.52060632 8.28596212 -2.03165952 4.33420699 0 0 Z " fill="#915C86" transform="translate(97,73)"/>
<path d="M0 0 C0.99 0.99 1.98 1.98 3 3 C1.35 4.98 -0.3 6.96 -2 9 C-3.32 8.67 -4.64 8.34 -6 8 C-4.55746343 4.63408134 -2.66735273 2.48952921 0 0 Z " fill="#3847A3" transform="translate(113,51)"/>
<path d="M0 0 C2.0625 -0.4375 2.0625 -0.4375 5 0 C7.5998607 2.09492908 9.86518875 4.43453518 12 7 C12 7.33 12 7.66 12 8 C10.35 8 8.7 8 7 8 C7 7.34 7 6.68 7 6 C6.01 5.67 5.02 5.34 4 5 C4 4.34 4 3.68 4 3 C2.68 2.34 1.36 1.68 0 1 C0 0.67 0 0.34 0 0 Z " fill="#1F3AAB" transform="translate(190,51)"/>
<path d="M0 0 C1.30062431 3.81516464 0.89369853 7.27561763 0.5625 11.25 C0.46066406 12.51328125 0.35882813 13.7765625 0.25390625 15.078125 C0.17011719 16.04234375 0.08632813 17.0065625 0 18 C-1.98 17.67 -3.96 17.34 -6 17 C-6.33 15.68 -6.66 14.36 -7 13 C-6.01 13.495 -6.01 13.495 -5 14 C-5 14.66 -5 15.32 -5 16 C-4.01 16 -3.02 16 -2 16 C-1.93941406 15.01257813 -1.87882812 14.02515625 -1.81640625 13.0078125 C-1.73261719 11.72648438 -1.64882813 10.44515625 -1.5625 9.125 C-1.48128906 7.84882813 -1.40007813 6.57265625 -1.31640625 5.2578125 C-1 2 -1 2 0 0 Z " fill="#FB7747" transform="translate(57,127)"/>
<path d="M0 0 C0.66 0 1.32 0 2 0 C2.33 2.97 2.66 5.94 3 9 C5.97 9.33 8.94 9.66 12 10 C12 10.33 12 10.66 12 11 C10.37675914 11.22162329 8.751279 11.42689803 7.125 11.625 C6.22007812 11.74101562 5.31515625 11.85703125 4.3828125 11.9765625 C3.59648437 11.98429688 2.81015625 11.99203125 2 12 C0 10 0 10 -0.1953125 7.6171875 C-0.17210937 6.71226562 -0.14890625 5.80734375 -0.125 4.875 C-0.10695312 3.96492187 -0.08890625 3.05484375 -0.0703125 2.1171875 C-0.04710937 1.41851562 -0.02390625 0.71984375 0 0 Z " fill="#767794" transform="translate(141,141)"/>
<path d="M0 0 C0.70125 0.721875 1.4025 1.44375 2.125 2.1875 C4.92770745 4.99823813 7.92262792 7.49516226 11 10 C11.33 8.68 11.66 7.36 12 6 C12 8.31 12 10.62 12 13 C11.01 13 10.02 13 9 13 C6.73828125 10.6640625 6.73828125 10.6640625 4.3125 7.625 C3.10013672 6.12839844 3.10013672 6.12839844 1.86328125 4.6015625 C0 2 0 2 0 0 Z " fill="#FB141A" transform="translate(43,130)"/>
<path d="M0 0 C2.64 0 5.28 0 8 0 C8 0.66 8 1.32 8 2 C11.63 2 15.26 2 19 2 C19 2.66 19 3.32 19 4 C12.00332583 5.90818386 6.60489576 3.52699624 0 1 C0 0.67 0 0.34 0 0 Z " fill="#E4A7AF" transform="translate(110,39)"/>
<path d="M0 0 C0.99 0 1.98 0 3 0 C3 1.32 3 2.64 3 4 C0.23547967 5.38226016 -2.0461363 5.09525387 -5.125 5.0625 C-6.22070312 5.05347656 -7.31640625 5.04445312 -8.4453125 5.03515625 C-9.70988281 5.01775391 -9.70988281 5.01775391 -11 5 C-11 4.34 -11 3.68 -11 3 C-7.37 3 -3.74 3 0 3 C0 2.01 0 1.02 0 0 Z " fill="#647197" transform="translate(136,148)"/>
<path d="M0 0 C0.33 0 0.66 0 1 0 C1.05449838 1.72880982 1.09301688 3.45812712 1.125 5.1875 C1.14820313 6.15042969 1.17140625 7.11335938 1.1953125 8.10546875 C0.9913544 11.12812778 0.26874632 13.26769985 -1 16 C-3.31323995 12.53014008 -3.03975162 11.01711296 -2.42578125 7.0078125 C-1.89999623 4.52842261 -1.07459989 2.29247976 0 0 Z " fill="#2753B0" transform="translate(210,110)"/>
<path d="M0 0 C5.75 0.875 5.75 0.875 8 2 C8 2.66 8 3.32 8 4 C6.68 4 5.36 4 4 4 C5.2065625 4.680625 5.2065625 4.680625 6.4375 5.375 C9 7 9 7 10 9 C8.65686601 8.35330586 7.32608822 7.68096422 6 7 C4.6696875 6.319375 4.6696875 6.319375 3.3125 5.625 C1 4 1 4 0.1875 1.8125 C0.125625 1.214375 0.06375 0.61625 0 0 Z " fill="#45609F" transform="translate(144,84)"/>
<path d="M0 0 C0.66 0.33 1.32 0.66 2 1 C1.55123384 2.64846769 1.09069512 4.29373455 0.625 5.9375 C0.36976562 6.85402344 0.11453125 7.77054687 -0.1484375 8.71484375 C-1 11 -1 11 -3 12 C-3.94721072 9.39517051 -4.30222393 7.69325299 -3.17578125 5.109375 C-2.17063275 3.37417127 -1.0893855 1.68359577 0 0 Z " fill="#FD2525" transform="translate(43,62)"/>
<path d="M0 0 C0.33 0 0.66 0 1 0 C1 6.27 1 12.54 1 19 C0.34 18.67 -0.32 18.34 -1 18 C-1.4140625 15.05859375 -1.4140625 15.05859375 -1.625 11.4375 C-1.69976562 10.23996094 -1.77453125 9.04242188 -1.8515625 7.80859375 C-1.90054688 6.88175781 -1.94953125 5.95492187 -2 5 C-1.67 5 -1.34 5 -1 5 C-0.67 3.35 -0.34 1.7 0 0 Z " fill="#FDD00C" transform="translate(60,141)"/>
<path d="M0 0 C3.3 0 6.6 0 10 0 C10 0.99 10 1.98 10 3 C6.7 3 3.4 3 0 3 C0 2.01 0 1.02 0 0 Z " fill="#E4C63F" transform="translate(64,148)"/>
<path d="M0 0 C3.67229009 3.37453684 6.08948843 6.37455093 8 11 C8 11.99 8 12.98 8 14 C7.01 13.67 6.02 13.34 5 13 C5 11.68 5 10.36 5 9 C4.01 8.34 3.02 7.68 2 7 C2 6.01 2 5.02 2 4 C1.34 4 0.68 4 0 4 C0 2.68 0 1.36 0 0 Z " fill="#3650B0" transform="translate(203,61)"/>
<path d="M0 0 C0.66 0.33 1.32 0.66 2 1 C4.00800456 0.71887936 6.01014051 0.38932033 8 0 C8 0.66 8 1.32 8 2 C6.56666979 2.39063507 5.12807321 2.76198474 3.6875 3.125 C2.48673828 3.43824219 2.48673828 3.43824219 1.26171875 3.7578125 C-1 4 -1 4 -4 2 C-2.125 0.9375 -2.125 0.9375 0 0 Z " fill="#2345AB" transform="translate(126,43)"/>
<path d="M0 0 C0.33 0.99 0.66 1.98 1 3 C1.66 3 2.32 3 3 3 C3.48198463 4.24891614 3.96045677 5.49918808 4.4375 6.75 C4.83775391 7.79414063 4.83775391 7.79414063 5.24609375 8.859375 C5.96146693 10.89059003 6.51365652 12.9035291 7 15 C3.28253621 11.79528984 1.64371698 8.60240754 0 4 C0 2.68 0 1.36 0 0 Z " fill="#FDCF16" transform="translate(61,161)"/>
<path d="M0 0 C0.66 0 1.32 0 2 0 C2 2.31 2 4.62 2 7 C3.32 7.33 4.64 7.66 6 8 C4.02 8.33 2.04 8.66 0 9 C0 6.03 0 3.06 0 0 Z " fill="#FDD617" transform="translate(144,141)"/>
<path d="M0 0 C2.31 0 4.62 0 7 0 C6 1.5 6 1.5 4 3 C1.28153765 3.27345479 -1.25677199 3.13491285 -4 3 C-4.33 2.34 -4.66 1.68 -5 1 C-3.35 1 -1.7 1 0 1 C0 0.67 0 0.34 0 0 Z " fill="#FCD242" transform="translate(103,199)"/>
<path d="M0 0 C5.75841242 3.43054357 5.75841242 3.43054357 6.875 6.0625 C6.98099645 7.70544499 7 9.35363932 7 11 C5 9.25 5 9.25 3 7 C3 5.68 3 4.36 3 3 C2.01 2.67 1.02 2.34 0 2 C0 1.34 0 0.68 0 0 Z " fill="#FADC78" transform="translate(65,174)"/>
<path d="M0 0 C1.32 0 2.64 0 4 0 C4.33 0.99 4.66 1.98 5 3 C4.34 3.66 3.68 4.32 3 5 C0.875 4.625 0.875 4.625 -1 4 C-1 1 -1 1 0 0 Z " fill="#857F88" transform="translate(110,148)"/>
<path d="M0 0 C0.66 0 1.32 0 2 0 C0.515 5.445 0.515 5.445 -1 11 C-1.66 11 -2.32 11 -3 11 C-2.69078116 9.54096742 -2.37751201 8.08279278 -2.0625 6.625 C-1.88847656 5.81289062 -1.71445313 5.00078125 -1.53515625 4.1640625 C-1 2 -1 2 0 0 Z " fill="#F93021" transform="translate(95,73)"/>
<path d="M0 0 C0.763125 0.804375 1.52625 1.60875 2.3125 2.4375 C4.79430898 5.16799024 4.79430898 5.16799024 8 6 C7.67 7.32 7.34 8.64 7 10 C6.34 10 5.68 10 5 10 C3.7109375 8.3203125 3.7109375 8.3203125 2.375 6.125 C1.92898437 5.40570313 1.48296875 4.68640625 1.0234375 3.9453125 C0 2 0 2 0 0 Z " fill="#0B3DAE" transform="translate(168,105)"/>
<path d="M0 0 C2.56269497 1.04109483 4.02610343 2.02610343 6 4 C5.01 4 4.02 4 3 4 C2.67 4.66 2.34 5.32 2 6 C0.68 4.35 -0.64 2.7 -2 1 C-1.34 0.67 -0.68 0.34 0 0 Z " fill="#1F4BAA" transform="translate(155,90)"/>
<path d="M0 0 C1.23593891 3.70781672 0.5678132 4.67510253 -0.9375 8.1875 C-1.31777344 9.08855469 -1.69804688 9.98960938 -2.08984375 10.91796875 C-2.54037109 11.94857422 -2.54037109 11.94857422 -3 13 C-4.66598857 7.95760794 -2.27200378 4.54400756 0 0 Z " fill="#F8AEAE" transform="translate(37,70)"/>
<path d="M0 0 C2.22825644 2.22825644 2.69239369 3.65761628 3.625 6.625 C4.01558594 7.85089844 4.01558594 7.85089844 4.4140625 9.1015625 C4.60742188 9.72804687 4.80078125 10.35453125 5 11 C3.0625 10 3.0625 10 1 8 C0.33450549 5.30075428 0.18319237 2.79368363 0 0 Z " fill="#F9E4AA" transform="translate(60,163)"/>
<path d="M0 0 C0.33 0 0.66 0 1 0 C1.12375 1.2375 1.2475 2.475 1.375 3.75 C1.75746305 6.8762197 2.30549523 9.28879237 4 12 C3.01 12.33 2.02 12.66 1 13 C0 12 0 12 -0.09765625 9.27734375 C-0.08605469 8.17519531 -0.07445312 7.07304687 -0.0625 5.9375 C-0.05347656 4.83277344 -0.04445312 3.72804687 -0.03515625 2.58984375 C-0.02355469 1.73519531 -0.01195312 0.88054687 0 0 Z " fill="#1C4DAC" transform="translate(182,138)"/>
<path d="M0 0 C4.75 0.875 4.75 0.875 7 2 C7.33 1.34 7.66 0.68 8 0 C8 0.99 8 1.98 8 3 C5.5 4.6875 5.5 4.6875 3 6 C3 5.01 3 4.02 3 3 C1.56249809 1.31201173 1.56249809 1.31201173 0 0 Z " fill="#E03B4F" transform="translate(114,43)"/>
<path d="M0 0 C1 3 1 3 0.22265625 4.82421875 C-0.8515625 6.54947917 -1.92578125 8.27473958 -3 10 C-3.66 10 -4.32 10 -5 10 C-3.125 4.25 -3.125 4.25 -2 2 C-1.34 2 -0.68 2 0 2 C0 1.34 0 0.68 0 0 Z " fill="#164CAD" transform="translate(205,124)"/>
<path d="M0 0 C0.66 0.33 1.32 0.66 2 1 C1.34 3.97 0.68 6.94 0 10 C-0.99 10 -1.98 10 -3 10 C-2.39009109 6.44219804 -1.4216319 3.3171411 0 0 Z " fill="#FC2222" transform="translate(37,73)"/>
<path d="M0 0 C0.66 0.33 1.32 0.66 2 1 C1.67 2.32 1.34 3.64 1 5 C-1.31 5 -3.62 5 -6 5 C-4.60210322 2.20420645 -2.7371003 1.40192942 0 0 Z " fill="#3648A3" transform="translate(120,46)"/>
<path d="M0 0 C0.66 0.33 1.32 0.66 2 1 C0.71186658 1.83878455 -0.58063256 2.67086783 -1.875 3.5 C-2.59429687 3.9640625 -3.31359375 4.428125 -4.0546875 4.90625 C-6 6 -6 6 -8 6 C-8 5.34 -8 4.68 -8 4 C-6.71349294 3.30289269 -5.42059335 2.61757124 -4.125 1.9375 C-3.40570313 1.55464844 -2.68640625 1.17179687 -1.9453125 0.77734375 C-1.30335937 0.52082031 -0.66140625 0.26429687 0 0 Z " fill="#FC192F" transform="translate(92,84)"/>
<path d="M0 0 C1.65 0 3.3 0 5 0 C5.66 1.98 6.32 3.96 7 6 C6.01 5.67 5.02 5.34 4 5 C4 4.34 4 3.68 4 3 C2.68 2.34 1.36 1.68 0 1 C0 0.67 0 0.34 0 0 Z " fill="#214DAD" transform="translate(190,51)"/>
<path d="M0 0 C0.66 1.32 1.32 2.64 2 4 C0.125 5.0625 0.125 5.0625 -2 6 C-2.66 5.67 -3.32 5.34 -4 5 C-3.67 4.34 -3.34 3.68 -3 3 C-2.34 3 -1.68 3 -1 3 C-0.67 2.01 -0.34 1.02 0 0 Z " fill="#FB4C4D" transform="translate(47,56)"/>
</svg>
